<?xml version="1.0" encoding="iso-8859-1"?>
<!-- Uploaded to: SVG Repo, www.svgrepo.com, Generator: SVG Repo Mixer Tools -->
<svg fill="#000000" height="85px" width="100px" version="1.1" id="Layer_1" xmlns="http://www.w3.org/2000/svg" xmlns:xlink="http://www.w3.org/1999/xlink" 
	 viewBox="0 0 512 512" xml:space="preserve">
<g>
	<g>
		<path d="M445.217,311.652v-33.391h-33.391V178.087h-33.391v-33.391h-66.783v-33.391h66.783V0H211.478v111.304h66.783v33.391
			H133.565v33.391h-33.391v100.174H66.783v33.391H33.391v133.565h445.217V311.652H445.217z M244.87,77.913V33.391h100.174v44.522
			H244.87z M166.957,211.478h178.087v66.783H166.957V211.478z M178.087,378.435h-66.783v-33.391h66.783V378.435z M289.391,378.435
			h-66.783v-33.391h66.783V378.435z M411.826,378.435h-66.783v-33.391h66.783V378.435z"/>
	</g>
</g>
<g>
	<g>
		<polygon points="478.609,445.217 478.609,478.609 33.391,478.609 33.391,445.217 0,445.217 0,512 512,512 512,445.217 		"/>
	</g>
</g>
</svg>